<?xml version="1.0" standalone="no"?><!DOCTYPE svg PUBLIC "-//W3C//DTD SVG 1.1//EN" "http://www.w3.org/Graphics/SVG/1.1/DTD/svg11.dtd"><svg t="1693313235632" class="icon" viewBox="0 0 1024 1024" version="1.1" xmlns="http://www.w3.org/2000/svg" p-id="2332" xmlns:xlink="http://www.w3.org/1999/xlink" width="200" height="200"><path d="M831.488 214.528h-665.6c-14.336 0-25.6-11.264-25.6-25.6s11.264-25.6 25.6-25.6h665.6c14.336 0 25.6 11.264 25.6 25.6s-11.264 25.6-25.6 25.6zM831.488 429.568h-665.6c-14.336 0-25.6-11.264-25.6-25.6s11.264-25.6 25.6-25.6h665.6c14.336 0 25.6 11.264 25.6 25.6s-11.264 25.6-25.6 25.6zM421.888 644.608h-256c-14.336 0-25.6-11.264-25.6-25.6s11.264-25.6 25.6-25.6h256c14.336 0 25.6 11.264 25.6 25.6 0 13.824-11.264 25.6-25.6 25.6zM473.088 859.648h-307.2c-14.336 0-25.6-11.264-25.6-25.6s11.264-25.6 25.6-25.6h307.2c14.336 0 25.6 11.264 25.6 25.6 0 13.824-11.264 25.6-25.6 25.6zM876.032 833.536l-100.864-100.864c17.92-25.088 28.672-55.808 28.672-88.576 0-84.48-69.12-153.6-153.6-153.6s-153.6 69.12-153.6 153.6 69.12 153.6 153.6 153.6c33.28 0 63.488-10.752 88.576-28.672l100.864 100.864c10.24 10.24 26.112 10.24 36.352 0 10.24-10.24 10.24-26.624 0-36.352z m-225.792-87.552c-56.32 0-102.4-46.08-102.4-102.4s46.08-102.4 102.4-102.4 102.4 46.08 102.4 102.4-46.08 102.4-102.4 102.4z" p-id="2333" fill="#bfbfbf"></path></svg>