<?xml version="1.0" standalone="no"?><!DOCTYPE svg PUBLIC "-//W3C//DTD SVG 1.1//EN" "http://www.w3.org/Graphics/SVG/1.1/DTD/svg11.dtd"><svg t="1693313200325" class="icon" viewBox="0 0 1024 1024" version="1.1" xmlns="http://www.w3.org/2000/svg" p-id="1563" xmlns:xlink="http://www.w3.org/1999/xlink" width="200" height="200"><path d="M865.28 691.2H158.72c-16.896 0-30.72-13.824-30.72-30.72V158.72c0-16.896 13.824-30.72 30.72-30.72h706.56c16.896 0 30.72 13.824 30.72 30.72v501.76c0 16.896-13.824 30.72-30.72 30.72z m-686.08-51.2h665.6v-460.8h-665.6v460.8zM640.512 781.312h-256c-14.336 0-25.6-11.264-25.6-25.6s11.264-25.6 25.6-25.6h256c14.336 0 25.6 11.264 25.6 25.6 0 13.824-11.776 25.6-25.6 25.6zM742.912 896.512h-460.8c-14.336 0-25.6-11.264-25.6-25.6s11.264-25.6 25.6-25.6h460.8c14.336 0 25.6 11.264 25.6 25.6s-11.776 25.6-25.6 25.6z" p-id="1564" fill="#bfbfbf"></path><path d="M538.112 286.72v256c0 14.336-11.264 25.6-25.6 25.6s-25.6-11.264-25.6-25.6v-256c0-14.336 11.264-25.6 25.6-25.6 13.824 0 25.6 11.776 25.6 25.6zM412.16 337.92v153.6c0 14.336-11.264 25.6-25.6 25.6s-25.6-11.264-25.6-25.6v-153.6c0-14.336 11.264-25.6 25.6-25.6 13.824 0 25.6 11.776 25.6 25.6zM664.064 312.32v204.8c0 14.336-11.264 25.6-25.6 25.6s-25.6-11.264-25.6-25.6v-204.8c0-14.336 11.264-25.6 25.6-25.6 13.824 0 25.6 11.776 25.6 25.6zM286.208 363.52v102.4c0 14.336-11.264 25.6-25.6 25.6s-25.6-11.264-25.6-25.6v-102.4c0-14.336 11.264-25.6 25.6-25.6s25.6 11.776 25.6 25.6zM790.016 363.52v102.4c0 14.336-11.264 25.6-25.6 25.6s-25.6-11.264-25.6-25.6v-102.4c0-14.336 11.264-25.6 25.6-25.6 13.824 0 25.6 11.776 25.6 25.6z" p-id="1565" fill="#bfbfbf"></path></svg>