<?xml version="1.0" standalone="no"?><!DOCTYPE svg PUBLIC "-//W3C//DTD SVG 1.1//EN" "http://www.w3.org/Graphics/SVG/1.1/DTD/svg11.dtd"><svg t="1693313305427" class="icon" viewBox="0 0 1024 1024" version="1.1" xmlns="http://www.w3.org/2000/svg" p-id="2708" xmlns:xlink="http://www.w3.org/1999/xlink" width="200" height="200"><path d="M512 896c-4.608 0-8.704-1.024-12.8-3.584l-310.272-179.2a25.8048 25.8048 0 0 1-12.8-22.016v-358.4c0-9.216 5.12-17.408 12.8-22.016l310.272-179.2c7.68-4.608 17.92-4.608 25.6 0l310.272 179.2c7.68 4.608 12.8 12.8 12.8 22.016v358.4c0 9.216-5.12 17.408-12.8 22.016l-310.272 179.2c-4.096 2.56-8.192 3.584-12.8 3.584z m-284.672-219.648L512 840.704l284.672-164.352V347.648L512 183.296 227.328 347.648v328.704z" p-id="2709" fill="#bfbfbf"></path><path d="M512 732.672c-4.608 0-8.704-1.024-12.8-3.584l-168.96-97.28a26.624 26.624 0 0 1-12.8-22.528V414.72c0-9.216 5.12-17.408 12.8-22.016l168.96-97.28c7.68-4.608 17.92-4.608 25.6 0l168.96 97.28c7.68 4.096 12.8 12.8 12.8 22.016v195.072c0 9.216-5.12 17.408-12.8 22.016l-168.96 97.28c-4.096 2.56-8.192 3.584-12.8 3.584z m-143.36-137.728l143.36 82.944 143.36-82.944V429.056L512 346.624 368.64 429.056v165.888z" p-id="2710" fill="#bfbfbf"></path></svg>