<?xml version="1.0" standalone="no"?><!DOCTYPE svg PUBLIC "-//W3C//DTD SVG 1.1//EN" "http://www.w3.org/Graphics/SVG/1.1/DTD/svg11.dtd"><svg t="1707737888706" class="icon" viewBox="0 0 1024 1024" version="1.1" xmlns="http://www.w3.org/2000/svg" p-id="4635" xmlns:xlink="http://www.w3.org/1999/xlink" width="200" height="200"><path d="M761.6 279.466667h-25.6v-10.666667c0-85.333333-68.266667-153.6-153.6-153.6H448c-85.333333 0-153.6 68.266667-153.6 153.6v10.666667h-25.6c-87.466667 0-157.866667 70.4-157.866667 157.866666v322.133334c0 87.466667 70.4 157.866667 157.866667 157.866666h492.8c87.466667 0 157.866667-70.4 157.866667-157.866666v-320c2.133333-87.466667-70.4-160-157.866667-160z m-403.2-10.666667c0-49.066667 40.533333-89.6 89.6-89.6h136.533333c49.066667 0 89.6 40.533333 89.6 89.6v10.666667H358.4v-10.666667z m499.2 492.8c0 51.2-42.666667 93.866667-93.866667 93.866667H268.8c-51.2 0-93.866667-42.666667-93.866667-93.866667V439.466667c0-51.2 42.666667-93.866667 93.866667-93.866667h25.6V405.333333c0 17.066667 14.933333 32 32 32s32-14.933333 32-32v-61.866666h315.733333V405.333333c0 17.066667 14.933333 32 32 32s32-14.933333 32-32v-61.866666h25.6c51.2 0 93.866667 42.666667 93.866667 93.866666v324.266667z" p-id="4636" fill="#bfbfbf"></path></svg>