<?xml version="1.0" standalone="no"?><!DOCTYPE svg PUBLIC "-//W3C//DTD SVG 1.1//EN" "http://www.w3.org/Graphics/SVG/1.1/DTD/svg11.dtd"><svg t="1708145472122" class="icon" viewBox="0 0 1024 1024" version="1.1" xmlns="http://www.w3.org/2000/svg" p-id="7900" xmlns:xlink="http://www.w3.org/1999/xlink" width="200" height="200"><path d="M536.3 924.2c-18.9 0-37.8-4.7-55.2-14.1-1.1-0.6-2.1-1.2-3.2-1.9L265.1 769.4h-73.3c-68.5 0-124.2-55.7-124.2-124.2v-270c0-68.5 55.7-124.2 124.2-124.2h73.4l212.9-137c1-0.6 2-1.2 3-1.7 36.4-19.7 79.3-18.7 114.8 2.5 37.6 22.5 60.1 62.8 60.1 107.8v577.2c0 45.1-22.5 85.4-60.1 107.8-18.5 11-39 16.6-59.6 16.6z m-11.7-91.7c11.4 5.5 20.9 1.6 25.8-1.3 10.5-6.3 16.7-18 16.7-31.5V222.6c0-13.5-6.3-25.2-16.7-31.5-4.8-2.9-14.4-6.7-25.9-1.2l-222.1 143c-7.2 4.6-15.5 7.1-24.1 7.1h-86.5c-19.5 0-35.3 15.8-35.3 35.3v270c0 19.5 15.8 35.3 35.3 35.3h86.5c8.6 0 17.1 2.5 24.3 7.2l222 144.7zM751.4 640.4c-4.8 0-9.6-0.8-14.3-2.4-23.3-7.9-35.7-33.2-27.8-56.4 7.3-21.5 11-44.2 11-67.3 0-27.2-5.1-53.5-15.1-78.2-9.2-22.8 1.7-48.7 24.5-57.9 22.8-9.2 48.7 1.7 57.9 24.5 14.3 35.4 21.6 72.9 21.6 111.7 0 32.9-5.3 65.2-15.8 96-6.2 18.3-23.5 30-42 30zM873.7 742.5c-6.3 0-12.7-1.3-18.7-4.2-22.3-10.4-31.9-36.8-21.6-59.1 22.6-48.6 34.5-105.6 34.5-165 0-68.5-16.3-135-45.9-187.1-12.1-21.4-4.6-48.5 16.7-60.6 21.3-12.2 48.5-4.6 60.6 16.7 37.6 66.3 57.5 146.1 57.5 231 0 72.3-14.8 142.3-42.8 202.5-7.5 16.3-23.5 25.8-40.3 25.8z" fill="#bfbfbf" p-id="7901"></path></svg>